<svg id="icon_fax" data-name="icon/fax" xmlns="http://www.w3.org/2000/svg" width="24" height="24" viewBox="0 0 24 24">
  <path id="Path_3" data-name="Path 3" d="M3.857,5.143a2.063,2.063,0,0,1,1.513.629A2.063,2.063,0,0,1,6,7.286V21.857a2.063,2.063,0,0,1-.629,1.513A2.063,2.063,0,0,1,3.857,24H2.143a2.063,2.063,0,0,1-1.513-.629A2.063,2.063,0,0,1,0,21.857V7.286A2.063,2.063,0,0,1,.629,5.772a2.063,2.063,0,0,1,1.513-.629ZM22.286,7.326a3.47,3.47,0,0,1,1.246,1.246A3.3,3.3,0,0,1,24,10.286V20.571A3.429,3.429,0,0,1,20.571,24H9a2.149,2.149,0,0,1-2.143-2.143V1.286A1.24,1.24,0,0,1,7.232.375,1.24,1.24,0,0,1,8.143,0h9a3.092,3.092,0,0,1,1.179.268,3.116,3.116,0,0,1,1.018.643l2.036,2.036a3.116,3.116,0,0,1,.643,1.018,3.092,3.092,0,0,1,.268,1.179ZM12.429,20.571V18.857A.413.413,0,0,0,12,18.429H10.286a.413.413,0,0,0-.429.429v1.714a.413.413,0,0,0,.429.429H12a.413.413,0,0,0,.429-.429Zm0-3.429V15.429A.413.413,0,0,0,12,15H10.286a.413.413,0,0,0-.429.429v1.714a.413.413,0,0,0,.429.429H12a.413.413,0,0,0,.429-.429Zm0-3.429V12A.413.413,0,0,0,12,11.571H10.286A.413.413,0,0,0,9.857,12v1.714a.413.413,0,0,0,.429.429H12a.413.413,0,0,0,.429-.429Zm3.429,6.857V18.857a.413.413,0,0,0-.429-.429H13.714a.413.413,0,0,0-.429.429v1.714a.413.413,0,0,0,.429.429h1.714a.413.413,0,0,0,.429-.429Zm0-3.429V15.429A.413.413,0,0,0,15.429,15H13.714a.413.413,0,0,0-.429.429v1.714a.413.413,0,0,0,.429.429h1.714a.413.413,0,0,0,.429-.429Zm0-3.429V12a.413.413,0,0,0-.429-.429H13.714a.413.413,0,0,0-.429.429v1.714a.413.413,0,0,0,.429.429h1.714a.413.413,0,0,0,.429-.429Zm3.429,6.857V18.857a.413.413,0,0,0-.429-.429H17.143a.413.413,0,0,0-.429.429v1.714a.413.413,0,0,0,.429.429h1.714a.413.413,0,0,0,.429-.429Zm0-3.429V15.429A.413.413,0,0,0,18.857,15H17.143a.413.413,0,0,0-.429.429v1.714a.413.413,0,0,0,.429.429h1.714a.413.413,0,0,0,.429-.429Zm0-3.429V12a.413.413,0,0,0-.429-.429H17.143a.413.413,0,0,0-.429.429v1.714a.413.413,0,0,0,.429.429h1.714a.413.413,0,0,0,.429-.429Zm1.286-5.143V5.143H18.429a1.28,1.28,0,0,1-1.286-1.286V1.714H8.571V8.571Z"/>
</svg>
